<svg width="391" height="74" viewBox="0 0 391 74" fill="none" xmlns="http://www.w3.org/2000/svg">
<path d="M3.81607 67.0901L3.20322 20.5487L35.9277 20.1178L36.0617 30.2987L15.9726 30.5633L16.0779 38.5626L34.1672 38.3244L34.3013 48.5053L16.2119 48.7435L16.4513 66.9237L3.81607 67.0901ZM53.2103 19.8902L53.8231 66.4316L41.1878 66.598L40.575 20.0566L53.2103 19.8902ZM84.4786 34.0252C84.3375 32.5118 83.7538 31.3375 82.7275 30.5025C81.7165 29.6672 80.1883 29.2631 78.143 29.29C76.8401 29.3072 75.7741 29.4803 74.945 29.8094C74.1309 30.1232 73.5304 30.5478 73.1434 31.0833C72.7565 31.6187 72.56 32.2274 72.5538 32.9094C72.5309 33.4703 72.636 33.9766 72.8693 34.4281C73.1175 34.8642 73.5015 35.2607 74.0214 35.6176C74.5411 35.9592 75.2043 36.2687 76.0111 36.546C76.8178 36.8233 77.7757 37.0683 78.8846 37.2809L82.7133 38.0488C85.296 38.5603 87.5098 39.2509 89.3548 40.1206C91.1997 40.9903 92.7134 42.0235 93.896 43.2202C95.0783 44.4017 95.952 45.7388 96.5172 47.2315C97.0975 48.724 97.4069 50.3564 97.4454 52.1288C97.4705 55.1893 96.7396 57.7901 95.2525 59.931C93.7654 62.072 91.6201 63.714 88.8168 64.8571C86.0285 66 82.6649 66.5974 78.7259 66.6492C74.6807 66.7025 71.1429 66.1505 68.1122 64.9934C65.0967 63.836 62.7394 62.026 61.0401 59.5633C59.3558 57.0852 58.4805 53.8995 58.414 50.0061L70.413 49.8481C70.5075 51.2712 70.8793 52.4634 71.5284 53.4247C72.1775 54.3859 73.081 55.1089 74.239 55.5937C75.4121 56.0783 76.8017 56.31 78.4076 56.2889C79.756 56.2711 80.8825 56.0896 81.7871 55.7443C82.6917 55.3991 83.375 54.9279 83.8368 54.3309C84.2987 53.7338 84.5322 53.0564 84.5374 52.2987C84.5129 51.5869 84.2699 50.9688 83.8084 50.4445C83.3618 49.9049 82.6283 49.4297 81.6076 49.0188C80.5868 48.5928 79.2103 48.2018 77.4782 47.8458L72.829 46.907C68.6964 46.0674 65.427 44.6179 63.0209 42.5585C60.6298 40.4837 59.4178 37.6282 59.3851 33.992C59.331 31.0379 60.0848 28.4444 61.6465 26.2115C63.2231 23.9633 65.4197 22.1993 68.2365 20.9197C71.0684 19.6399 74.325 18.9758 78.0065 18.9273C81.7638 18.8778 85.0218 19.4637 87.7805 20.6851C90.5393 21.9065 92.6761 23.6512 94.1909 25.9193C95.7207 28.1721 96.5132 30.821 96.5685 33.866L84.4786 34.0252ZM102.433 65.7916L101.82 19.2501L114.455 19.0838L114.694 37.264L131.42 37.0438L131.181 18.8635L143.816 18.6971L144.429 65.2386L131.794 65.4049L131.554 47.2247L114.828 47.4449L115.068 65.6252L102.433 65.7916ZM147.907 18.6433L161.996 18.4577L171.335 37.2455L171.699 37.2407L180.54 18.2136L194.63 18.028L177.961 50.1594L178.153 64.7945L165.609 64.9597L165.416 50.3246L147.907 18.6433ZM211.179 64.3596L196.84 17.9989L210.93 17.8134L217.67 46.3635L218.033 46.3587L225.201 17.6255L236.291 17.4794L244.214 46.1049L244.578 46.1001L250.562 17.2915L264.652 17.106L251.539 63.8282L239.449 63.9874L231.198 38.0937L230.835 38.0985L223.269 64.2004L211.179 64.3596ZM281.378 16.8858L281.991 63.4272L269.356 63.5936L268.743 17.0521L281.378 16.8858ZM312.646 31.0207C312.505 29.5073 311.922 28.3331 310.895 27.498C309.884 26.6628 308.356 26.2586 306.311 26.2856C305.008 26.3027 303.942 26.4759 303.113 26.805C302.299 27.1188 301.698 27.5434 301.311 28.0788C300.924 28.6143 300.728 29.223 300.722 29.9049C300.699 30.4659 300.804 30.9721 301.037 31.4236C301.285 31.8598 301.669 32.2563 302.189 32.6131C302.709 32.9548 303.372 33.2643 304.179 33.5415C304.986 33.8188 305.943 34.0638 307.052 34.2765L310.881 35.0443C313.464 35.5558 315.678 36.2464 317.522 37.1162C319.367 37.9859 320.881 39.0191 322.064 40.2157C323.246 41.3972 324.12 42.7343 324.685 44.227C325.265 45.7195 325.575 47.3519 325.613 49.1243C325.638 52.1848 324.907 54.7856 323.42 56.9266C321.933 59.0676 319.788 60.7096 316.984 61.8527C314.196 62.9955 310.833 63.5929 306.894 63.6448C302.848 63.698 299.311 63.1461 296.28 61.9889C293.264 60.8315 290.907 59.0215 289.208 56.5588C287.524 54.0808 286.648 50.8951 286.582 47.0017L298.581 46.8437C298.675 48.2668 299.047 49.459 299.696 50.4202C300.345 51.3814 301.249 52.1044 302.407 52.5892C303.58 53.0738 304.969 53.3056 306.575 53.2844C307.924 53.2667 309.05 53.0851 309.955 52.7399C310.859 52.3946 311.543 51.9234 312.005 51.3264C312.466 50.7294 312.7 50.052 312.705 49.2943C312.681 48.5824 312.438 47.9643 311.976 47.4401C311.53 46.9005 310.796 46.4252 309.775 46.0144C308.754 45.5884 307.378 45.1974 305.646 44.8414L300.997 43.9025C296.864 43.0629 293.595 41.6134 291.189 39.554C288.797 37.4792 287.586 34.6237 287.553 30.9875C287.499 28.0334 288.253 25.4399 289.814 23.207C291.391 20.9588 293.587 19.1949 296.404 17.9153C299.236 16.6354 302.493 15.9713 306.174 15.9228C309.932 15.8733 313.19 16.4593 315.948 17.6806C318.707 18.902 320.844 20.6468 322.359 22.9149C323.888 25.1677 324.681 27.8165 324.736 30.8615L312.646 31.0207ZM330.6 62.7871L329.987 16.2457L342.623 16.0793L342.862 34.2595L359.588 34.0393L359.348 15.8591L371.984 15.6927L372.597 62.2341L359.961 62.4005L359.722 44.2202L342.996 44.4405L343.236 62.6207L330.6 62.7871Z" fill="#2917FA"/>
</svg>
